<svg height="512" viewBox="0 0 512 512" width="512" xmlns="http://www.w3.org/2000/svg"><g id="flat"><path d="m256 24a200 200 0 0 1 200 200v143.059a88.941 88.941 0 0 1 -88.941 88.941h-222.118a88.941 88.941 0 0 1 -88.941-88.941v-143.059a200 200 0 0 1 200-200z" fill="#533222"/><path d="m128 216 21.177-7.941a100.622 100.622 0 0 0 58.882-58.882l7.941-21.177a100.617 100.617 0 0 0 81.072 74.845l78.928 13.155v139.363a100 100 0 0 1 -33.229 74.442l-46.761 41.942a63.589 63.589 0 0 1 -42.46 16.253 63.588 63.588 0 0 1 -41.565-15.465l-49.348-42.62a100 100 0 0 1 -34.637-75.681z" fill="#fdc9a6"/><g fill="#533222"><path d="m173.891 248a8 8 0 1 1 0-16 139.586 139.586 0 0 0 44.238-7.18l1.233-.41a8 8 0 0 1 5.057 15.18l-1.231.41a155.568 155.568 0 0 1 -49.297 8z"/><path d="m333.891 248h-10.091a101.17 101.17 0 0 1 -41.14-8.683 8 8 0 1 1 6.465-14.634 85.3 85.3 0 0 0 34.675 7.317h10.093a8 8 0 1 1 0 16z"/><path d="m264 344h-24a8 8 0 0 1 -7.892-9.315l8-48a8 8 0 0 1 15.784 2.63l-6.449 38.685h14.557a8 8 0 0 1 0 16z"/><path d="m288.006 392a8 8 0 0 1 -1.946-.241 124.383 124.383 0 0 0 -60.12 0 8 8 0 1 1 -3.88-15.522 140.4 140.4 0 0 1 67.88 0 8 8 0 0 1 -1.934 15.763z"/></g><path d="m128 336-14.856-5.942a40 40 0 0 1 -25.144-37.139v-4.919a40 40 0 0 1 40-40z" fill="#f6bb92"/><path d="m376 336 14.856-5.942a40 40 0 0 0 25.144-37.139v-4.919a40 40 0 0 0 -40-40z" fill="#f6bb92"/><path d="m156 488c0-19.2 8-19.2 8-38.4s-8-19.2-8-38.4 8-19.2 8-38.4-8-19.2-8-38.4 8-19.2 8-38.4h32c0 19.2-8 19.2-8 38.4s8 19.2 8 38.4-8 19.2-8 38.4 8 19.2 8 38.4-8 19.2-8 38.4z" fill="#43dcfe"/><path d="m352 488c0-19.2-8-19.2-8-38.4s8-19.2 8-38.4-8-19.2-8-38.4 8-19.2 8-38.4-8-19.2-8-38.4h-32c0 19.2 8 19.2 8 38.4s-8 19.2-8 38.4 8 19.2 8 38.4-8 19.2-8 38.4 8 19.2 8 38.4z" fill="#43dcfe"/><path d="m192.835 306.138a67.51 67.51 0 0 1 -26.267-5.307l-9.68-4.088a8 8 0 1 1 6.224-14.743l9.681 4.088a51.7 51.7 0 0 0 47.027-3.539 8 8 0 1 1 8.36 13.642 67.667 67.667 0 0 1 -35.345 9.947z" fill="#533222"/><path d="m315.165 306.138a67.657 67.657 0 0 1 -35.345-9.944 8 8 0 0 1 8.36-13.642 51.7 51.7 0 0 0 47.027 3.539l9.681-4.091a8 8 0 0 1 6.224 14.74l-9.68 4.088a67.531 67.531 0 0 1 -26.267 5.31z" fill="#533222"/></g></svg>